# xmcd
#
# Track frame offsets: 
#        150
#        70342
#        113462
#        136787
#
# Disc length: 2981 seconds
#
# Revision: 0
# Processed by: cddbd v1.5.2PL0 Copyright (c) Steve Scherf et al.
# Submitted via: ExactAudioCopy v1.0b3
#
DISCID=2c0ba304
DTITLE=John Barbirolli , Vienna Philharmonic - Brahms Symphony No. 1  
DTITLE=
DYEAR=1900
DGENRE=Classical
TTITLE0=Symphony No. 1 in C Minor Op. 68 - I. Un poco sostenuto, Alleg
TTITLE0=ro, Meno allegro
TTITLE1=Symphony No. 1 in C Minor Op. 68 - II. Andante sostenuto
TTITLE2=Symphony No. 1 in C Minor Op. 68 - III. Un poco allegretto e g
TTITLE2=razioso
TTITLE3=Symphony No. 1 in C Minor Op. 68 - IV. Adagio - Allegro non tr
TTITLE3=oppo, ma con brio
EXTD=
EXTT0=
EXTT1=
EXTT2=
EXTT3=
PLAYORDER=
